<svg width="220" height="90" viewBox="0 0 220 90" fill="none" xmlns="http://www.w3.org/2000/svg">
<path d="M76.7664 38.3832C76.7664 59.5816 59.5816 76.7664 38.3832 76.7664C17.1847 76.7664 0 59.5816 0 38.3832C0 17.1847 17.1847 0 38.3832 0C59.5816 0 76.7664 17.1847 76.7664 38.3832Z" fill="#FF004E"/>
<path d="M49.4789 13.9286C47.5187 14.9804 45.4389 16.9645 43.2396 19.881C41.0404 22.7496 38.8172 26.431 36.5701 30.9252C38.2912 31.2599 39.869 31.6424 41.3033 32.0727C42.7854 32.503 44.1241 32.9572 45.3194 33.4353L49.4789 13.9286ZM55.0728 8.83673C56.0768 8.83673 57.0808 8.93235 58.0848 9.1236C59.0889 9.26703 59.9734 9.50608 60.7383 9.84075L49.4789 62.6237H39.1518L44.674 36.5908C43.0006 35.8258 41.4228 35.2521 39.9407 34.8696C38.4586 34.4393 36.833 34.1525 35.064 34.009C32.3388 39.9376 30.0917 45.9617 28.3227 52.0815C26.6015 58.2012 25.741 63.1018 25.741 66.7832C25.741 67.6438 25.8127 68.3849 25.9561 69.0064C26.1473 69.6758 26.4103 70.2734 26.745 70.7993C23.1114 70.7993 20.6013 70.1778 19.2148 68.9347C17.8283 67.6916 17.135 65.7792 17.135 63.1974C17.135 59.9941 18.0913 55.7151 20.0037 50.3603C21.9639 45.0055 24.5218 39.5551 27.6773 34.009C25.2389 34.1525 23.3265 34.5349 21.94 35.1565C20.6013 35.778 19.7168 36.6386 19.2865 37.7383C19.4778 37.7383 19.669 38.0012 19.8602 38.5271C20.0993 39.0052 20.2188 39.4834 20.2188 39.9615C20.2188 40.7742 19.8363 41.4436 19.0714 41.9695C18.3064 42.4954 17.3502 42.7584 16.2027 42.7584C14.864 42.7584 13.7883 42.3998 12.9755 41.6826C12.1627 40.9177 11.7563 39.8897 11.7563 38.5989C11.7563 36.1127 13.1429 34.0329 15.9159 32.3596C18.7367 30.6384 22.2269 29.7778 26.3864 29.7778C26.8645 29.7778 27.4143 29.8017 28.0359 29.8495C28.6574 29.8495 29.3507 29.8973 30.1156 29.9929C34.323 23.3473 38.602 18.1598 42.9528 14.4306C47.3036 10.7013 51.3435 8.83673 55.0728 8.83673Z" fill="white"/>
<path d="M61.525 26.7657H63.8916L66.0431 16.8689L76.657 15.4346L74.2187 26.7657H78.5217L77.9479 29.6344H73.645L69.0551 51.1491C68.9595 51.5794 68.8878 51.9858 68.84 52.3683C68.7922 52.703 68.7683 53.0616 68.7683 53.4441C68.7683 54.4003 68.9834 55.0935 69.4137 55.5238C69.8918 55.9063 70.6568 56.0975 71.7086 56.0975C73.0473 56.0975 74.3143 55.5238 75.5096 54.3764C76.7048 53.1811 77.5893 51.6512 78.1631 49.7865H81.1751C79.6452 54.1373 77.5893 57.4362 75.0076 59.6833C72.4258 61.9304 69.4615 63.054 66.1148 63.054C63.7243 63.054 61.8357 62.3129 60.4492 60.8308C59.1105 59.3009 58.4412 57.1733 58.4412 54.4481C58.4412 53.8265 58.489 53.1333 58.5846 52.3683C58.6802 51.5555 58.8237 50.6949 59.0149 49.7865L63.3179 29.6344H60.9512L61.525 26.7657Z" fill="white"/>
<path d="M96.0517 54.9501C96.0517 54.0895 96.1473 53.0138 96.3386 51.7229C96.5776 50.432 97.0318 48.3761 97.7012 45.5553C98.3705 42.8301 98.8008 40.8699 98.9921 39.6746C99.1833 38.4793 99.2789 37.4753 99.2789 36.6625C99.2789 35.4673 99.0399 34.5589 98.5618 33.9373C98.1315 33.3158 97.486 33.005 96.6254 33.005C95.478 33.005 94.3544 33.6983 93.2548 35.0848C92.203 36.4235 91.5097 37.8339 91.175 39.316L86.2266 62.6237H75.8995L86.2983 13.8569L96.9123 12.4225L93.0396 30.495C94.2349 29.1563 95.5258 28.1522 96.9123 27.4829C98.2988 26.8135 99.8048 26.4789 101.43 26.4789C103.964 26.4789 105.925 27.1721 107.311 28.5586C108.698 29.9451 109.391 31.9532 109.391 34.5828C109.391 35.6824 109.247 36.9972 108.961 38.5271C108.722 40.0093 108.22 42.3042 107.455 45.4119C106.833 47.8502 106.427 49.5714 106.235 50.5754C106.044 51.5794 105.949 52.4161 105.949 53.0855C105.949 54.0895 106.188 54.8545 106.666 55.3804C107.144 55.8585 107.861 56.0975 108.817 56.0975C110.012 56.0975 111.04 55.6912 111.901 54.8784C112.762 54.0656 113.742 52.3683 114.841 49.7865H117.853C116.323 54.2329 114.459 57.5558 112.26 59.7551C110.108 61.9543 107.526 63.054 104.514 63.054C101.837 63.054 99.757 62.3368 98.2749 60.9025C96.7928 59.4204 96.0517 57.4362 96.0517 54.9501Z" fill="white"/>
<path d="M140.802 33.005C140.802 36.9733 139.177 40.4396 135.926 43.4038C132.675 46.3203 128.802 47.898 124.308 48.1371C124.26 48.9499 124.212 49.5714 124.164 50.0017C124.164 50.3842 124.164 50.7188 124.164 51.0057C124.164 53.205 124.523 54.7588 125.24 55.6672C126.005 56.5757 127.368 57.0299 129.328 57.0299C131.575 57.0299 133.631 56.5278 135.495 55.5238C137.408 54.472 139.583 52.5596 142.022 49.7865H144.46C141.687 54.2807 138.675 57.6275 135.424 59.8268C132.173 61.9783 128.611 63.054 124.738 63.054C121.057 63.054 118.26 62.0978 116.347 60.1854C114.483 58.2729 113.55 55.4282 113.55 51.6512C113.55 48.926 113.981 46.0334 114.841 42.9735C115.702 39.9136 116.849 37.1884 118.284 34.7979C120.053 31.9293 122.156 29.7778 124.595 28.3435C127.081 26.8613 129.854 26.1203 132.914 26.1203C135.543 26.1203 137.504 26.694 138.794 27.8415C140.133 28.9411 140.802 30.6623 140.802 33.005ZM133.487 29.9212C131.862 29.9212 130.212 31.3794 128.539 34.2959C126.913 37.1645 125.694 40.6308 124.882 44.6947C127.655 44.5035 130.069 43.2365 132.125 40.8938C134.229 38.5032 135.28 35.8258 135.28 32.8616C135.28 31.8576 135.137 31.1165 134.85 30.6384C134.563 30.1603 134.109 29.9212 133.487 29.9212Z" fill="white"/>
<path d="M159.784 54.9501C159.784 54.0895 159.879 53.0138 160.071 51.7229C160.31 50.432 160.764 48.3761 161.433 45.5553C162.102 42.8301 162.533 40.8699 162.724 39.6746C162.915 38.4793 163.011 37.4753 163.011 36.6625C163.011 35.4673 162.796 34.5589 162.365 33.9373C161.935 33.3158 161.29 33.005 160.429 33.005C159.282 33.005 158.206 33.6026 157.202 34.7979C156.246 35.9454 155.457 37.547 154.835 39.6029L149.959 62.6237H139.631L147.233 26.7657H157.56L156.772 30.495C157.967 29.1563 159.258 28.1522 160.644 27.4829C162.031 26.8135 163.537 26.4789 165.162 26.4789C167.696 26.4789 169.657 27.1721 171.043 28.5586C172.43 29.9451 173.123 31.9532 173.123 34.5828C173.123 35.6824 172.979 36.9972 172.693 38.5271C172.453 40.0093 171.951 42.3042 171.186 45.4119C170.565 47.8502 170.159 49.5714 169.967 50.5754C169.776 51.5794 169.68 52.4161 169.68 53.0855C169.68 54.0895 169.92 54.8545 170.398 55.3804C170.876 55.8585 171.593 56.0975 172.549 56.0975C173.744 56.0975 174.772 55.6912 175.633 54.8784C176.493 54.0656 177.474 52.3683 178.573 49.7865H181.585C180.055 54.2329 178.191 57.5558 175.991 59.7551C173.84 61.9543 171.258 63.054 168.246 63.054C165.569 63.054 163.489 62.3368 162.007 60.9025C160.525 59.4204 159.784 57.4362 159.784 54.9501Z" fill="white"/>
<path d="M202.573 30.0647V30.5667L203.362 26.7657H213.689L208.525 51.1491C208.43 51.5794 208.358 51.9858 208.31 52.3683C208.262 52.703 208.238 53.0616 208.238 53.4441C208.238 54.4959 208.477 55.2848 208.956 55.8107C209.434 56.2888 210.175 56.5278 211.179 56.5278C212.422 56.5278 213.545 55.9541 214.549 54.8067C215.553 53.6114 216.366 51.938 216.988 49.7865H220C218.47 54.1851 216.486 57.508 214.047 59.7551C211.609 61.9543 208.788 63.054 205.585 63.054C203.529 63.054 201.88 62.4803 200.637 61.3328C199.441 60.1854 198.748 58.5598 198.557 56.4561C197.075 58.6554 195.425 60.3049 193.608 61.4045C191.839 62.5042 189.927 63.054 187.871 63.054C184.907 63.054 182.564 62.05 180.843 60.0419C179.17 58.0339 178.333 55.1891 178.333 51.5077C178.333 48.8303 178.739 46.0334 179.552 43.117C180.365 40.2005 181.488 37.547 182.923 35.1565C184.692 32.3357 186.748 30.1842 189.09 28.7021C191.433 27.1721 193.991 26.4071 196.764 26.4071C198.628 26.4071 200.063 26.7418 201.067 27.4112C202.071 28.0327 202.573 28.9172 202.573 30.0647ZM201.927 33.5787C201.927 32.8616 201.664 32.24 201.139 31.7141C200.613 31.1404 199.895 30.8535 198.987 30.8535C196.357 30.8535 194.015 33.0528 191.959 37.4514C189.951 41.85 188.947 46.2007 188.947 50.5037C188.947 52.3683 189.21 53.7787 189.736 54.7349C190.262 55.6433 191.194 56.0975 192.533 56.0975C193.776 56.0975 194.971 55.4999 196.118 54.3046C197.314 53.1094 198.103 51.6033 198.485 49.7865L201.927 33.5787Z" fill="white"/>
<path d="M140.631 79.5275L140.638 86.3692L139.17 86.3706L139.162 77.8322L140.551 77.8309L140.631 79.5275ZM140.334 81.7768L139.655 81.7537C139.66 81.1698 139.736 80.6305 139.882 80.1358C140.029 79.6359 140.247 79.2017 140.536 78.8331C140.825 78.4646 141.185 78.1802 141.616 77.9799C142.048 77.7743 142.547 77.6712 143.115 77.6707C143.515 77.6703 143.884 77.7279 144.22 77.8433C144.557 77.9534 144.849 78.1294 145.097 78.3712C145.344 78.6129 145.537 78.9231 145.674 79.3018C145.811 79.6805 145.88 80.1381 145.88 80.6747L145.886 86.3643L144.426 86.3657L144.42 80.7471C144.42 80.2999 144.343 79.9422 144.191 79.6741C144.043 79.4059 143.832 79.2115 143.559 79.0907C143.285 78.9647 142.964 78.9019 142.596 78.9022C142.164 78.9026 141.804 78.9793 141.515 79.1321C141.226 79.2849 140.994 79.4956 140.821 79.764C140.648 80.0325 140.522 80.3404 140.443 80.6877C140.37 81.0297 140.333 81.3927 140.334 81.7768ZM145.865 80.9667L144.887 81.2675C144.891 80.7992 144.967 80.3494 145.114 79.9178C145.266 79.4863 145.484 79.1021 145.768 78.7651C146.057 78.4281 146.412 78.1621 146.833 77.9671C147.253 77.7668 147.735 77.6664 148.276 77.6659C148.734 77.6654 149.139 77.7256 149.492 77.8462C149.85 77.9669 150.15 78.1534 150.392 78.4057C150.639 78.6527 150.826 78.9708 150.953 79.36C151.08 79.7492 151.143 80.2121 151.144 80.7487L151.149 86.3594L149.681 86.3607L149.676 80.7343C149.676 80.2555 149.599 79.8847 149.446 79.6218C149.299 79.3536 149.088 79.1671 148.814 79.0621C148.546 78.9519 148.225 78.8969 147.851 78.8973C147.53 78.8976 147.246 78.9531 146.999 79.0638C146.752 79.1745 146.544 79.3273 146.376 79.5221C146.208 79.7116 146.079 79.9301 145.99 80.1774C145.906 80.4248 145.864 80.6879 145.865 80.9667Z" fill="#FF004E"/>
<path d="M156.902 86.5118C156.307 86.5123 155.768 86.4129 155.284 86.2134C154.805 86.0087 154.392 85.7224 154.044 85.3545C153.702 84.9865 153.438 84.5501 153.254 84.0452C153.069 83.5404 152.977 82.9881 152.976 82.3883L152.976 82.0569C152.975 81.3625 153.077 80.7442 153.282 80.2022C153.486 79.6548 153.765 79.1916 154.117 78.8125C154.469 78.4334 154.869 78.1463 155.316 77.9512C155.763 77.7562 156.226 77.6584 156.704 77.658C157.315 77.6574 157.841 77.7621 158.283 77.9721C158.73 78.1821 159.096 78.4764 159.381 78.8549C159.665 79.2282 159.876 79.6699 160.013 80.1801C160.15 80.685 160.219 81.2373 160.22 81.837L160.22 82.492L153.844 82.498L153.843 81.3064L158.759 81.3018L158.759 81.1913C158.738 80.8126 158.659 80.4444 158.522 80.0868C158.39 79.7292 158.179 79.4347 157.889 79.2035C157.6 78.9723 157.205 78.857 156.705 78.8574C156.374 78.8577 156.069 78.929 155.79 79.0714C155.512 79.2084 155.272 79.4138 155.073 79.6875C154.873 79.9613 154.718 80.2955 154.608 80.6902C154.498 81.0848 154.443 81.54 154.444 82.0555L154.444 82.387C154.444 82.792 154.5 83.1734 154.611 83.531C154.727 83.8834 154.893 84.1936 155.109 84.4617C155.33 84.7298 155.596 84.94 155.906 85.0923C156.222 85.2446 156.58 85.3205 156.98 85.3201C157.495 85.3197 157.932 85.214 158.289 85.0033C158.647 84.7925 158.96 84.5107 159.228 84.158L160.112 84.8595C159.928 85.1385 159.694 85.4044 159.411 85.6572C159.127 85.91 158.777 86.1155 158.362 86.2737C157.951 86.4319 157.465 86.5113 156.902 86.5118Z" fill="#FF004E"/>
<path d="M163.382 79.6324L163.388 86.3479L161.929 86.3492L161.921 77.8109L163.302 77.8096L163.382 79.6324ZM163.037 81.7555L162.429 81.7324C162.434 81.1484 162.52 80.6091 162.688 80.1144C162.856 79.6145 163.092 79.1802 163.397 78.8117C163.702 78.4432 164.065 78.1587 164.485 77.9584C164.911 77.7528 165.382 77.6498 165.898 77.6493C166.318 77.6489 166.697 77.7065 167.034 77.8219C167.371 77.932 167.658 78.1106 167.895 78.3577C168.137 78.6047 168.321 78.9254 168.448 79.3199C168.575 79.7091 168.638 80.1851 168.639 80.748L168.644 86.343L167.176 86.3443L167.171 80.7336C167.171 80.2865 167.104 79.9288 166.973 79.6606C166.841 79.3872 166.649 79.1901 166.396 79.0693C166.143 78.9433 165.833 78.8804 165.465 78.8808C165.102 78.8811 164.77 78.9577 164.471 79.1106C164.176 79.2634 163.921 79.4741 163.706 79.7426C163.496 80.0111 163.33 80.319 163.21 80.6663C163.094 81.0084 163.037 81.3714 163.037 81.7555Z" fill="#FF004E"/>
<path d="M174.428 77.7992L174.429 78.9197L169.813 78.924L169.812 77.8035L174.428 77.7992ZM171.372 75.7266L172.832 75.7252L172.84 84.2242C172.84 84.5135 172.885 84.7318 172.975 84.879C173.065 85.0262 173.18 85.1234 173.322 85.1707C173.465 85.2179 173.617 85.2414 173.78 85.2412C173.901 85.2411 174.027 85.2305 174.159 85.2093C174.296 85.1829 174.398 85.1618 174.467 85.1459L174.476 86.3375C174.36 86.3744 174.207 86.4088 174.018 86.4405C173.834 86.4775 173.61 86.4961 173.347 86.4964C172.99 86.4967 172.661 86.426 172.361 86.2842C172.061 86.1425 171.821 85.906 171.642 85.5747C171.468 85.2382 171.381 84.7858 171.38 84.2176L171.372 75.7266Z" fill="#FF004E"/>
<path d="M175.6 82.1619L175.6 81.9804C175.599 81.3649 175.688 80.794 175.867 80.2678C176.045 79.7363 176.302 79.2757 176.639 78.8861C176.975 78.4912 177.383 78.1857 177.861 77.9695C178.34 77.7481 178.876 77.6372 179.471 77.6366C180.07 77.636 180.61 77.746 181.089 77.9665C181.573 78.1818 181.983 78.4865 182.321 78.8808C182.663 79.2697 182.924 79.7298 183.103 80.261C183.282 80.7869 183.372 81.3576 183.373 81.9731L183.373 82.1546C183.374 82.7702 183.285 83.3411 183.106 83.8673C182.928 84.3936 182.668 84.8541 182.326 85.249C181.99 85.6386 181.583 85.9441 181.104 86.1655C180.631 86.3817 180.094 86.49 179.495 86.4906C178.895 86.4912 178.356 86.3838 177.877 86.1686C177.398 85.9481 176.987 85.6433 176.645 85.2543C176.308 84.8601 176.049 84.4 175.87 83.8741C175.691 83.3482 175.601 82.7775 175.6 82.1619ZM177.06 81.9791L177.06 82.1606C177.061 82.5867 177.111 82.9891 177.211 83.3678C177.311 83.7412 177.462 84.0725 177.662 84.3617C177.867 84.6508 178.123 84.8794 178.428 85.0475C178.733 85.2103 179.088 85.2915 179.494 85.2911C179.893 85.2908 180.243 85.2089 180.543 85.0455C180.848 84.8769 181.1 84.6478 181.3 84.3583C181.499 84.0687 181.649 83.7372 181.749 83.3635C181.854 82.9847 181.906 82.5822 181.905 82.156L181.905 81.9745C181.905 81.5537 181.852 81.1565 181.746 80.7831C181.646 80.4044 181.493 80.0705 181.288 79.7813C181.087 79.4869 180.835 79.2557 180.529 79.0876C180.229 78.9195 179.877 78.8357 179.472 78.8361C179.072 78.8365 178.719 78.921 178.415 79.0896C178.115 79.2582 177.863 79.4899 177.658 79.7847C177.458 80.0743 177.308 80.4085 177.209 80.7873C177.109 81.161 177.06 81.5582 177.06 81.9791Z" fill="#FF004E"/>
<path d="M186.661 79.1292L186.668 86.326L185.208 86.3274L185.2 77.7891L186.62 77.7877L186.661 79.1292ZM189.327 77.7378L189.32 79.0951C189.199 79.069 189.084 79.0533 188.973 79.0481C188.868 79.0377 188.747 79.0326 188.61 79.0327C188.273 79.033 187.976 79.0859 187.718 79.1913C187.461 79.2968 187.243 79.4443 187.064 79.6339C186.885 79.8234 186.743 80.0498 186.638 80.3129C186.539 80.5708 186.473 80.8549 186.442 81.1654L186.032 81.4025C186.031 80.8869 186.081 80.4029 186.18 79.9503C186.285 79.4978 186.445 79.0978 186.661 78.7504C186.876 78.3977 187.149 78.1239 187.481 77.929C187.817 77.7287 188.217 77.6284 188.68 77.628C188.785 77.6279 188.906 77.6409 189.043 77.6671C189.18 77.688 189.274 77.7116 189.327 77.7378Z" fill="#FF004E"/>
<path d="M195.654 84.0528C195.654 83.8424 195.606 83.6478 195.511 83.469C195.422 83.285 195.235 83.1194 194.95 82.9724C194.671 82.8201 194.25 82.6889 193.687 82.579C193.214 82.4795 192.785 82.3615 192.401 82.2251C192.022 82.0887 191.698 81.9233 191.43 81.7289C191.167 81.5344 190.964 81.3058 190.821 81.0429C190.679 80.78 190.608 80.4723 190.608 80.1198C190.607 79.7831 190.681 79.4648 190.828 79.1648C190.98 78.8647 191.193 78.5989 191.466 78.3671C191.745 78.1354 192.079 77.9536 192.468 77.8217C192.857 77.6898 193.291 77.6236 193.77 77.6232C194.453 77.6225 195.038 77.743 195.522 77.9845C196.006 78.2261 196.377 78.5493 196.635 78.9541C196.894 79.3537 197.023 79.7981 197.023 80.2874L195.563 80.2888C195.563 80.052 195.492 79.8232 195.35 79.6024C195.213 79.3763 195.01 79.1898 194.742 79.0427C194.478 78.8957 194.155 78.8223 193.771 78.8227C193.366 78.823 193.037 78.8865 192.784 79.013C192.537 79.1342 192.356 79.2896 192.24 79.4791C192.13 79.6686 192.075 79.8685 192.075 80.079C192.075 80.2368 192.102 80.3788 192.155 80.505C192.213 80.626 192.313 80.739 192.455 80.8441C192.597 80.9439 192.797 81.0384 193.055 81.1276C193.313 81.2168 193.642 81.3059 194.041 81.395C194.741 81.5521 195.318 81.741 195.77 81.9615C196.223 82.1821 196.56 82.4527 196.781 82.7734C197.002 83.0941 197.113 83.4833 197.114 83.941C197.114 84.3145 197.035 84.6565 196.878 84.9671C196.725 85.2776 196.502 85.5461 196.208 85.7726C195.919 85.9938 195.572 86.1678 195.167 86.2944C194.767 86.4158 194.317 86.4767 193.817 86.4772C193.065 86.4779 192.428 86.3443 191.907 86.0765C191.386 85.8087 190.991 85.4618 190.723 85.036C190.454 84.6101 190.319 84.1604 190.319 83.6869L191.787 83.6856C191.808 84.0854 191.924 84.4035 192.135 84.6401C192.345 84.8714 192.603 85.0368 192.909 85.1365C193.214 85.2309 193.516 85.278 193.816 85.2777C194.216 85.2773 194.55 85.2244 194.818 85.1189C195.092 85.0135 195.299 84.8686 195.441 84.6843C195.583 84.5001 195.654 84.2896 195.654 84.0528Z" fill="#FF004E"/>
<path d="M200.482 74.1921L200.493 86.3131L199.033 86.3144L199.022 74.1934L200.482 74.1921ZM200.142 81.7207L199.534 81.6976C199.539 81.1136 199.625 80.5743 199.793 80.0796C199.961 79.5797 200.197 79.1454 200.502 78.7769C200.807 78.4083 201.169 78.1239 201.59 77.9236C202.016 77.718 202.487 77.615 203.002 77.6145C203.423 77.6141 203.802 77.6716 204.139 77.7871C204.476 77.8972 204.763 78.0758 205 78.3229C205.242 78.5699 205.426 78.8906 205.553 79.2851C205.679 79.6743 205.743 80.1503 205.744 80.7132L205.749 86.3081L204.281 86.3095L204.276 80.6988C204.275 80.2517 204.209 79.894 204.077 79.6258C203.946 79.3524 203.753 79.1553 203.501 79.0345C203.248 78.9085 202.938 78.8456 202.57 78.846C202.207 78.8463 201.875 78.9229 201.575 79.0758C201.281 79.2286 201.026 79.4393 200.811 79.7078C200.6 79.9763 200.435 80.2842 200.314 80.6315C200.199 80.9736 200.141 81.3366 200.142 81.7207Z" fill="#FF004E"/>
<path d="M209.513 77.7662L209.521 86.3046L208.053 86.306L208.045 77.7676L209.513 77.7662ZM207.932 75.5029C207.932 75.2662 208.003 75.0662 208.145 74.903C208.292 74.7398 208.508 74.658 208.792 74.6578C209.071 74.6575 209.284 74.7388 209.431 74.9018C209.584 75.0647 209.66 75.2646 209.661 75.5013C209.661 75.7275 209.585 75.9223 209.432 76.0855C209.285 76.2434 209.072 76.3226 208.793 76.3228C208.509 76.3231 208.294 76.2444 208.146 76.0867C208.004 75.9237 207.933 75.7292 207.932 75.5029Z" fill="#FF004E"/>
<path d="M213.318 79.4041L213.328 89.5838L211.86 89.5852L211.849 77.7641L213.19 77.7628L213.318 79.4041ZM219.073 81.9554L219.073 82.1212C219.074 82.7419 219.001 83.3181 218.854 83.8496C218.707 84.3758 218.492 84.8337 218.208 85.2232C217.93 85.6128 217.585 85.9156 217.175 86.1317C216.765 86.3478 216.294 86.4561 215.763 86.4566C215.221 86.4571 214.742 86.3681 214.327 86.1896C213.911 86.0111 213.558 85.7511 213.268 85.4094C212.979 85.0677 212.747 84.6576 212.573 84.179C212.404 83.7004 212.288 83.1613 212.224 82.5616L212.223 81.6778C212.286 81.0464 212.404 80.4808 212.577 79.9808C212.75 79.4809 212.978 79.0545 213.262 78.7018C213.551 78.3438 213.901 78.0725 214.311 77.888C214.721 77.6982 215.194 77.6031 215.731 77.6026C216.268 77.6021 216.744 77.7069 217.16 77.9169C217.575 78.1217 217.926 78.416 218.21 78.7997C218.494 79.1835 218.708 79.6436 218.85 80.1801C218.998 80.7113 219.072 81.3031 219.073 81.9554ZM217.605 82.1225L217.605 81.9568C217.605 81.5307 217.56 81.1309 217.47 80.7575C217.38 80.3788 217.241 80.0475 217.051 79.7636C216.866 79.4744 216.63 79.2484 216.34 79.0856C216.051 78.9175 215.706 78.8337 215.306 78.834C214.938 78.8344 214.617 78.8978 214.343 79.0243C214.075 79.1508 213.847 79.322 213.657 79.5379C213.468 79.7485 213.313 79.9907 213.193 80.2643C213.077 80.5327 212.99 80.8117 212.933 81.1011L212.935 83.1449C213.04 83.5131 213.188 83.8601 213.378 84.1861C213.567 84.5069 213.82 84.767 214.136 84.9667C214.452 85.161 214.849 85.258 215.328 85.2575C215.722 85.2571 216.062 85.1753 216.346 85.0119C216.635 84.8433 216.871 84.6142 217.055 84.3247C217.244 84.0352 217.383 83.7036 217.472 83.33C217.562 82.9512 217.606 82.5487 217.605 82.1225Z" fill="#FF004E"/>
</svg>
