<svg width="136" height="36" viewBox="0 0 136 36" fill="none" xmlns="http://www.w3.org/2000/svg">
<path d="M24.8518 2.93938C23.5741 3.54657 22.2185 4.69196 20.785 6.37555C19.3514 8.03154 17.9023 10.1567 16.4376 12.7511C17.5595 12.9443 18.5879 13.1651 19.5228 13.4135C20.4889 13.6619 21.3615 13.9241 22.1406 14.2001L24.8518 2.93938ZM28.498 0C29.1524 0 29.8069 0.0551997 30.4613 0.165599C31.1157 0.248399 31.6923 0.386398 32.1909 0.579595L24.8518 31.0498H18.1205L21.7199 16.0217C20.6292 15.5801 19.6008 15.2489 18.6347 15.0281C17.6686 14.7797 16.609 14.6141 15.456 14.5313C13.6796 17.9537 12.215 21.4312 11.0619 24.964C9.94 28.4968 9.37906 31.3257 9.37906 33.4509C9.37906 33.9477 9.4258 34.3755 9.51929 34.7343C9.64395 35.1207 9.81535 35.4657 10.0335 35.7693C7.66505 35.7693 6.02896 35.4105 5.12521 34.6929C4.22146 33.9753 3.76959 32.8713 3.76959 31.3809C3.76959 29.5318 4.39286 27.0616 5.63941 23.9704C6.91712 20.8792 8.58438 17.7329 10.6412 14.5313C9.05184 14.6141 7.80529 14.8349 6.90154 15.1937C6.02896 15.5525 5.45243 16.0493 5.17196 16.6841C5.29661 16.6841 5.42127 16.8359 5.54592 17.1395C5.70174 17.4155 5.77965 17.6915 5.77965 17.9675C5.77965 18.4367 5.53034 18.823 5.03172 19.1266C4.5331 19.4302 3.90983 19.582 3.1619 19.582C2.28931 19.582 1.58813 19.375 1.05835 18.961C0.528563 18.5195 0.263672 17.9261 0.263672 17.1809C0.263672 15.7457 1.16742 14.5451 2.97491 13.5791C4.81357 12.5855 7.08852 12.0887 9.79977 12.0887C10.1114 12.0887 10.4698 12.1025 10.8749 12.1301C11.28 12.1301 11.7319 12.1577 12.2305 12.2129C14.9729 8.37653 17.7621 5.38196 20.598 3.22917C23.4339 1.07639 26.0672 0 28.498 0Z" fill="white"/>
<path d="M32.7036 10.3499H34.2462L35.6486 4.63676L42.5669 3.80877L40.9776 10.3499H43.7823L43.4084 12.0059H40.6036L37.6119 24.4258C37.5496 24.6742 37.5028 24.9088 37.4717 25.1296C37.4405 25.3228 37.4249 25.5298 37.4249 25.7506C37.4249 26.3026 37.5652 26.7028 37.8456 26.9512C38.1573 27.172 38.6559 27.2824 39.3415 27.2824C40.2141 27.2824 41.0399 26.9512 41.819 26.2888C42.5981 25.5988 43.1746 24.7156 43.5486 23.6392H45.5119C44.5147 26.1508 43.1746 28.0552 41.4918 29.3524C39.809 30.6496 37.8768 31.2981 35.6953 31.2981C34.1372 31.2981 32.9062 30.8704 32.0024 30.0148C31.1299 29.1316 30.6936 27.9034 30.6936 26.3302C30.6936 25.9714 30.7247 25.5712 30.7871 25.1296C30.8494 24.6604 30.9429 24.1636 31.0675 23.6392L33.8723 12.0059H32.3297L32.7036 10.3499Z" fill="white"/>
<path d="M55.2087 26.62C55.2087 26.1232 55.271 25.5022 55.3957 24.757C55.5515 24.0118 55.8476 22.825 56.2838 21.1966C56.7201 19.6234 57.0006 18.4919 57.1253 17.8019C57.2499 17.1119 57.3122 16.5323 57.3122 16.0631C57.3122 15.3731 57.1564 14.8487 56.8448 14.4899C56.5643 14.1311 56.1436 13.9517 55.5827 13.9517C54.8347 13.9517 54.1024 14.3519 53.3856 15.1523C52.7 15.9251 52.2481 16.7393 52.03 17.5949L48.8046 31.0498H42.0732L48.8513 2.89798L55.7696 2.06998L53.2454 12.5027C54.0245 11.7299 54.8659 11.1503 55.7696 10.7639C56.6734 10.3775 57.6551 10.1843 58.7146 10.1843C60.3663 10.1843 61.644 10.5845 62.5478 11.3849C63.4515 12.1853 63.9034 13.3445 63.9034 14.8625C63.9034 15.4973 63.8099 16.2563 63.6229 17.1395C63.4671 17.9951 63.1399 19.3198 62.6412 21.1138C62.2361 22.5214 61.9712 23.515 61.8466 24.0946C61.7219 24.6742 61.6596 25.1572 61.6596 25.5436C61.6596 26.1232 61.8154 26.5648 62.127 26.8684C62.4387 27.1444 62.9061 27.2824 63.5294 27.2824C64.3085 27.2824 64.9785 27.0478 65.5395 26.5786C66.1004 26.1094 66.7393 25.1296 67.456 23.6392H69.4193C68.4221 26.206 67.2067 28.1242 65.7732 29.3938C64.3708 30.6634 62.688 31.2981 60.7247 31.2981C58.9795 31.2981 57.6239 30.8842 56.6578 30.0562C55.6917 29.2006 55.2087 28.0552 55.2087 26.62Z" fill="white"/>
<path d="M84.3779 13.9517C84.3779 16.2425 83.3184 18.2435 81.1992 19.9546C79.0801 21.6382 76.5558 22.549 73.6264 22.687C73.5953 23.1562 73.5641 23.515 73.533 23.7634C73.533 23.9842 73.533 24.1774 73.533 24.343C73.533 25.6126 73.7667 26.5096 74.2341 27.034C74.7328 27.5584 75.6209 27.8206 76.8986 27.8206C78.3633 27.8206 79.7034 27.5308 80.9188 26.9512C82.1653 26.344 83.5833 25.24 85.1726 23.6392H86.762C84.9545 26.2336 82.9911 28.1656 80.872 29.4352C78.7529 30.6772 76.4312 31.2981 73.9069 31.2981C71.5073 31.2981 69.6842 30.7462 68.4377 29.6422C67.2223 28.5382 66.6146 26.896 66.6146 24.7156C66.6146 23.1424 66.8951 21.4726 67.456 19.7062C68.017 17.9399 68.7649 16.3667 69.6998 14.9867C70.8529 13.3307 72.2241 12.0887 73.8134 11.2607C75.4339 10.4051 77.2414 9.97732 79.2359 9.97732C80.9499 9.97732 82.2276 10.3085 83.0691 10.9709C83.9416 11.6057 84.3779 12.5993 84.3779 13.9517ZM79.6099 12.1715C78.5503 12.1715 77.4752 13.0133 76.3844 14.6969C75.3249 16.3529 74.5302 18.3539 74.0004 20.6998C75.8079 20.5894 77.3817 19.858 78.7217 18.5057C80.0929 17.1257 80.7785 15.5801 80.7785 13.8689C80.7785 13.2893 80.685 12.8615 80.498 12.5855C80.3111 12.3095 80.015 12.1715 79.6099 12.1715Z" fill="white"/>
<path d="M96.7502 26.62C96.7502 26.1232 96.8125 25.5022 96.9371 24.757C97.093 24.0118 97.389 22.825 97.8253 21.1966C98.2616 19.6234 98.5421 18.4919 98.6667 17.8019C98.7914 17.1119 98.8537 16.5323 98.8537 16.0631C98.8537 15.3731 98.7135 14.8487 98.433 14.4899C98.1525 14.1311 97.7318 13.9517 97.1709 13.9517C96.423 13.9517 95.7218 14.2967 95.0673 14.9867C94.444 15.6491 93.9298 16.5737 93.5247 17.7605L90.346 31.0498H83.6147L88.5697 10.3499H95.301L94.7868 12.5027C95.5659 11.7299 96.4074 11.1503 97.3111 10.7639C98.2149 10.3775 99.1965 10.1843 100.256 10.1843C101.908 10.1843 103.185 10.5845 104.089 11.3849C104.993 12.1853 105.445 13.3445 105.445 14.8625C105.445 15.4973 105.351 16.2563 105.164 17.1395C105.009 17.9951 104.681 19.3198 104.183 21.1138C103.778 22.5214 103.513 23.515 103.388 24.0946C103.263 24.6742 103.201 25.1572 103.201 25.5436C103.201 26.1232 103.357 26.5648 103.669 26.8684C103.98 27.1444 104.448 27.2824 105.071 27.2824C105.85 27.2824 106.52 27.0478 107.081 26.5786C107.642 26.1094 108.281 25.1296 108.998 23.6392H110.961C109.964 26.206 108.748 28.1242 107.315 29.3938C105.912 30.6634 104.229 31.2981 102.266 31.2981C100.521 31.2981 99.1654 30.8842 98.1993 30.0562C97.2332 29.2006 96.7502 28.0552 96.7502 26.62Z" fill="white"/>
<path d="M124.641 12.2543V12.5441L125.155 10.3499H131.886L128.521 24.4258C128.458 24.6742 128.412 24.9088 128.38 25.1296C128.349 25.3228 128.334 25.5298 128.334 25.7506C128.334 26.3578 128.49 26.8132 128.801 27.1168C129.113 27.3928 129.596 27.5308 130.25 27.5308C131.061 27.5308 131.793 27.1996 132.447 26.5372C133.102 25.8472 133.632 24.8812 134.037 23.6392H136C135.003 26.1784 133.709 28.0966 132.12 29.3938C130.531 30.6634 128.692 31.2981 126.604 31.2981C125.264 31.2981 124.189 30.967 123.379 30.3046C122.6 29.6422 122.148 28.7038 122.023 27.4894C121.057 28.759 119.982 29.7112 118.798 30.346C117.645 30.9808 116.398 31.2981 115.058 31.2981C113.126 31.2981 111.599 30.7186 110.477 29.5594C109.386 28.4002 108.841 26.758 108.841 24.6328C108.841 23.0872 109.106 21.4726 109.636 19.789C110.165 18.1055 110.898 16.5737 111.833 15.1937C112.986 13.5653 114.326 12.3233 115.853 11.4677C117.38 10.5845 119.047 10.1429 120.854 10.1429C122.07 10.1429 123.005 10.3361 123.659 10.7225C124.314 11.0813 124.641 11.5919 124.641 12.2543ZM124.22 14.2829C124.22 13.8689 124.049 13.5101 123.706 13.2065C123.363 12.8753 122.896 12.7097 122.304 12.7097C120.59 12.7097 119.063 13.9793 117.722 16.5185C116.414 19.0576 115.759 21.5692 115.759 24.0532C115.759 25.1296 115.931 25.9438 116.273 26.4958C116.616 27.0202 117.224 27.2824 118.096 27.2824C118.907 27.2824 119.686 26.9374 120.434 26.2474C121.213 25.5574 121.727 24.688 121.976 23.6392L124.22 14.2829Z" fill="white"/>
</svg>
