<svg width="1024" height="1024" viewBox="0 0 1024 1024" fill="none" xmlns="http://www.w3.org/2000/svg">
<path d="M1024 512C1024 794.77 794.77 1024 512 1024C229.23 1024 0 794.77 0 512C0 229.23 229.23 0 512 0C794.77 0 1024 229.23 1024 512Z" fill="white"/>
<path d="M1024 512C1024 794.77 794.77 1024 512 1024C229.23 1024 0 794.77 0 512C0 229.23 229.23 0 512 0C794.77 0 1024 229.23 1024 512Z" fill="#FF004E"/>
<path d="M660.008 185.816C633.86 199.846 606.118 226.313 576.781 265.216C547.445 303.481 517.789 352.588 487.815 412.537C510.774 417.002 531.82 422.104 550.952 427.843C570.723 433.583 588.58 439.642 604.524 446.019L660.008 185.816ZM734.626 117.895C748.019 117.895 761.411 119.17 774.804 121.721C788.197 123.634 799.996 126.823 810.2 131.288L660.008 835.368H522.253L595.914 488.111C573.593 477.907 552.547 470.254 532.776 465.152C513.006 459.412 491.322 455.586 467.725 453.672C431.373 532.754 401.399 613.111 377.802 694.744C354.843 776.376 343.363 841.746 343.363 890.853C343.363 902.333 344.32 912.218 346.233 920.509C348.784 929.437 352.292 937.409 356.756 944.424C308.287 944.424 274.805 936.134 256.31 919.552C237.815 902.97 228.568 877.46 228.568 843.021C228.568 800.292 241.323 743.213 266.833 671.784C292.981 600.356 327.101 527.652 369.192 453.672C336.667 455.586 311.157 460.688 292.662 468.979C274.805 477.269 263.006 488.749 257.267 503.417C259.818 503.417 262.369 506.925 264.92 513.94C268.108 520.318 269.703 526.695 269.703 533.073C269.703 543.915 264.601 552.843 254.397 559.859C244.193 566.874 231.437 570.381 216.131 570.381C198.274 570.381 183.925 565.598 173.083 556.032C162.241 545.828 156.82 532.116 156.82 514.897C156.82 481.734 175.315 453.991 212.305 431.67C249.932 408.711 296.488 397.231 351.973 397.231C358.351 397.231 365.685 397.55 373.976 398.188C382.266 398.188 391.514 398.826 401.718 400.101C457.84 311.453 514.919 242.257 572.955 192.512C630.991 142.767 684.881 117.895 734.626 117.895Z" fill="white"/>
</svg>
